# xmcd
#
# Track frame offsets:
# 150
# 20145
# 34909
# 55889
# 74125
# 86082
# 109227
# 127361
# 144683
# 166621
# 185667
# 201991
#
# Disc length: 2900 seconds
#
#
# Revision: 0
# Processed by: cddbd v1.5.1PL0 Copyright (c) Steve Scherf et al.
# Submitted via: FreeRIP 2.53 
#
DISCID=c10b520c
DTITLE=VP and the HammerHeads - Hypnotized
DYEAR=2004
DGENRE=Blues
TTITLE0=Drinking Beer
TTITLE1=Jumpin To The Blues
TTITLE2=Hypnotized
TTITLE3=Some Party
TTITLE4=Lights Out
TTITLE5=Too Much Time
TTITLE6=Comin Home Baby
TTITLE7=These Kind of Blues Pt. 1
TTITLE8=Crazy Mixed Up World
TTITLE9=Taking a Stroll Downtown
TTITLE10=I'm Gonna Leave
TTITLE11=I Can't Stop It
EXTD=Heard on BluesfestRadio.com
EXTT0=
EXTT1=
EXTT2=
EXTT3=
EXTT4=
EXTT5=
EXTT6=
EXTT7=
EXTT8=
EXTT9=
EXTT10=
EXTT11=
PLAYORDER=
